<mxfile host="app.diagrams.net" modified="2021-12-23T09:43:22.905Z" agent="5.0 (Windows NT 10.0; Win64; x64) AppleWebKit/537.36 (KHTML, like Gecko) Chrome/96.0.4664.110 Safari/537.36" etag="z7J4BkhsrlxN0QTuH7G-" version="15.9.1" type="github">
  <diagram name="Page-1" id="42789a77-a242-8287-6e28-9cd8cfd52e62">
    <mxGraphModel dx="1585" dy="833" grid="0" gridSize="10" guides="1" tooltips="1" connect="1" arrows="1" fold="1" page="1" pageScale="1" pageWidth="1100" pageHeight="850" background="none" math="0" shadow="0">
      <root>
        <mxCell id="0" />
        <mxCell id="1" parent="0" />
        <mxCell id="61b5pI-P31Cabm5huOT_-1" value="B" style="rounded=0;whiteSpace=wrap;html=1;fontStyle=1;strokeColor=#B0B0B0;" parent="1" vertex="1">
          <mxGeometry x="486" y="93" width="422" height="332" as="geometry" />
        </mxCell>
        <mxCell id="1ea317790d2ca983-12" style="edgeStyle=none;rounded=1;html=1;labelBackgroundColor=none;startArrow=none;startFill=0;startSize=5;endArrow=classicThin;endFill=1;endSize=5;jettySize=auto;orthogonalLoop=1;strokeColor=#3B3B3B;strokeWidth=1;fontFamily=Verdana;fontSize=12" parent="1" source="1ea317790d2ca983-1" target="1ea317790d2ca983-2" edge="1">
          <mxGeometry relative="1" as="geometry" />
        </mxCell>
        <mxCell id="61b5pI-P31Cabm5huOT_-3" value="&lt;font style=&quot;font-size: 12px&quot;&gt;Computer Vision (Polina)&lt;/font&gt;" style="edgeLabel;html=1;align=center;verticalAlign=middle;resizable=0;points=[];" parent="1ea317790d2ca983-12" vertex="1" connectable="0">
          <mxGeometry x="-0.3044" y="-2" relative="1" as="geometry">
            <mxPoint as="offset" />
          </mxGeometry>
        </mxCell>
        <mxCell id="1ea317790d2ca983-14" value="H.264 implementation (Kostya)" style="edgeStyle=none;rounded=1;html=1;labelBackgroundColor=none;startArrow=none;startFill=0;startSize=5;endArrow=classicThin;endFill=1;endSize=5;jettySize=auto;orthogonalLoop=1;strokeColor=#383838;strokeWidth=1;fontFamily=Verdana;fontSize=12" parent="1" source="1ea317790d2ca983-1" target="ZjOwchhwlkYdt-Frztce-1" edge="1">
          <mxGeometry relative="1" as="geometry">
            <mxPoint x="713" y="283" as="targetPoint" />
          </mxGeometry>
        </mxCell>
        <mxCell id="1ea317790d2ca983-1" value="A" style="ellipse;whiteSpace=wrap;html=1;rounded=0;shadow=1;comic=0;labelBackgroundColor=none;strokeWidth=1;fontFamily=Verdana;fontSize=12;align=center;" parent="1" vertex="1">
          <mxGeometry x="102" y="455" width="90" height="60" as="geometry" />
        </mxCell>
        <mxCell id="1ea317790d2ca983-2" value="&lt;span&gt;UI + Text&lt;br&gt;recognition&amp;nbsp;&lt;/span&gt;" style="ellipse;whiteSpace=wrap;html=1;rounded=0;shadow=1;comic=0;labelBackgroundColor=none;strokeWidth=1;fontFamily=Verdana;fontSize=12;align=center;fillColor=#dae8fc;strokeColor=#6c8ebf;" parent="1" vertex="1">
          <mxGeometry x="467" y="433" width="75" height="50" as="geometry" />
        </mxCell>
        <mxCell id="ZjOwchhwlkYdt-Frztce-1" value="&lt;span style=&quot;font-family: &amp;#34;verdana&amp;#34;&quot;&gt;Region of Interest&lt;/span&gt;" style="ellipse;whiteSpace=wrap;html=1;fillColor=#d5e8d4;strokeColor=#82b366;" parent="1" vertex="1">
          <mxGeometry x="348" y="287" width="82" height="55" as="geometry" />
        </mxCell>
        <mxCell id="61b5pI-P31Cabm5huOT_-5" value="" style="shape=flexArrow;endArrow=classic;html=1;rounded=0;strokeColor=#3B3B3B;" parent="1" edge="1">
          <mxGeometry width="50" height="50" relative="1" as="geometry">
            <mxPoint x="464" y="423" as="sourcePoint" />
            <mxPoint x="415" y="355" as="targetPoint" />
            <Array as="points">
              <mxPoint x="445" y="396.5" />
            </Array>
          </mxGeometry>
        </mxCell>
        <mxCell id="61b5pI-P31Cabm5huOT_-6" value="Apply" style="edgeLabel;html=1;align=center;verticalAlign=middle;resizable=0;points=[];" parent="61b5pI-P31Cabm5huOT_-5" vertex="1" connectable="0">
          <mxGeometry x="0.1722" y="1" relative="1" as="geometry">
            <mxPoint as="offset" />
          </mxGeometry>
        </mxCell>
        <mxCell id="s2ZchUun_zwhC62kbvkX-1" value="" style="endArrow=classic;html=1;rounded=0;fontSize=12;strokeColor=#3B3B3B;" edge="1" parent="1" source="ZjOwchhwlkYdt-Frztce-1" target="s2ZchUun_zwhC62kbvkX-2">
          <mxGeometry width="50" height="50" relative="1" as="geometry">
            <mxPoint x="437" y="287" as="sourcePoint" />
            <mxPoint x="487" y="202" as="targetPoint" />
          </mxGeometry>
        </mxCell>
        <mxCell id="s2ZchUun_zwhC62kbvkX-2" value="RoI gitlab repo" style="rhombus;whiteSpace=wrap;html=1;fontSize=12;strokeColor=#B0B0B0;" vertex="1" parent="1">
          <mxGeometry x="523" y="127" width="80" height="80" as="geometry" />
        </mxCell>
        <mxCell id="s2ZchUun_zwhC62kbvkX-3" value="Upscaling&lt;br&gt;720p to 1080p" style="ellipse;whiteSpace=wrap;html=1;fontSize=12;strokeColor=#6c8ebf;fillColor=#dae8fc;" vertex="1" parent="1">
          <mxGeometry x="662" y="337" width="120" height="80" as="geometry" />
        </mxCell>
        <mxCell id="s2ZchUun_zwhC62kbvkX-4" value="latency &lt;br&gt;how to measure research" style="shape=hexagon;perimeter=hexagonPerimeter2;whiteSpace=wrap;html=1;fixedSize=1;fontSize=12;strokeColor=#d79b00;fillColor=#ffe6cc;" vertex="1" parent="1">
          <mxGeometry x="598" y="221" width="120" height="80" as="geometry" />
        </mxCell>
        <mxCell id="s2ZchUun_zwhC62kbvkX-5" value="" style="endArrow=classic;html=1;rounded=0;fontSize=12;strokeColor=#3B3B3B;" edge="1" parent="1" source="s2ZchUun_zwhC62kbvkX-2" target="s2ZchUun_zwhC62kbvkX-4">
          <mxGeometry width="50" height="50" relative="1" as="geometry">
            <mxPoint x="603.0021738249808" y="196.5746024774834" as="sourcePoint" />
            <mxPoint x="729.9314774494557" y="89.00147744945562" as="targetPoint" />
          </mxGeometry>
        </mxCell>
        <mxCell id="s2ZchUun_zwhC62kbvkX-6" value="" style="endArrow=classic;html=1;rounded=0;fontSize=12;strokeColor=#3B3B3B;" edge="1" parent="1" source="1ea317790d2ca983-2" target="s2ZchUun_zwhC62kbvkX-3">
          <mxGeometry width="50" height="50" relative="1" as="geometry">
            <mxPoint x="598" y="445" as="sourcePoint" />
            <mxPoint x="648" y="395" as="targetPoint" />
          </mxGeometry>
        </mxCell>
        <mxCell id="s2ZchUun_zwhC62kbvkX-7" value="B" style="text;html=1;strokeColor=none;fillColor=none;align=center;verticalAlign=middle;whiteSpace=wrap;rounded=0;fontSize=12;" vertex="1" parent="1">
          <mxGeometry x="841" y="101" width="60" height="30" as="geometry" />
        </mxCell>
        <mxCell id="s2ZchUun_zwhC62kbvkX-8" value="Kostya" style="text;html=1;strokeColor=none;fillColor=none;align=center;verticalAlign=middle;whiteSpace=wrap;rounded=0;fontSize=12;" vertex="1" parent="1">
          <mxGeometry x="523" y="221" width="73" height="38" as="geometry" />
        </mxCell>
        <mxCell id="s2ZchUun_zwhC62kbvkX-9" value="Polina" style="text;html=1;strokeColor=none;fillColor=none;align=center;verticalAlign=middle;whiteSpace=wrap;rounded=0;fontSize=12;" vertex="1" parent="1">
          <mxGeometry x="542" y="361" width="73" height="38" as="geometry" />
        </mxCell>
        <mxCell id="s2ZchUun_zwhC62kbvkX-10" value="" style="shape=actor;whiteSpace=wrap;html=1;fontSize=12;strokeColor=#B0B0B0;" vertex="1" parent="1">
          <mxGeometry x="532" y="364.5" width="20" height="31" as="geometry" />
        </mxCell>
        <mxCell id="s2ZchUun_zwhC62kbvkX-11" value="" style="shape=actor;whiteSpace=wrap;html=1;fontSize=12;strokeColor=#B0B0B0;" vertex="1" parent="1">
          <mxGeometry x="512" y="224.5" width="20" height="31" as="geometry" />
        </mxCell>
      </root>
    </mxGraphModel>
  </diagram>
</mxfile>
